<svg width="30" height="37" viewBox="0 0 30 37" fill="none" xmlns="http://www.w3.org/2000/svg">
<path d="M24.183 33.6819L19.5897 28.3722L19.7667 32.0138L17.4628 34.7185L24.183 33.6819Z" fill="#F5F5F7"/>
<path d="M20.3252 30.7456L20.2586 30.7333L20.1842 30.7187L20.0325 30.6877L19.7249 30.6212C19.519 30.5756 19.3122 30.5269 19.1056 30.4765C18.6926 30.3754 18.2795 30.2661 17.8683 30.15C17.0456 29.9172 16.2306 29.6563 15.4235 29.3672C14.6192 29.0783 13.8226 28.7598 13.0438 28.408C12.265 28.0561 11.5008 27.6708 10.7645 27.2457C10.0281 26.8237 9.31968 26.3528 8.64379 25.836C7.97306 25.3245 7.35017 24.7507 6.78306 24.1218C6.22013 23.4995 5.73856 22.8051 5.35031 22.0559C4.96553 21.3049 4.70076 20.4955 4.56601 19.6581C4.53169 19.449 4.51081 19.2339 4.49536 19.0184C4.47992 18.8029 4.47156 18.5873 4.46879 18.3709C4.46501 17.9362 4.48593 17.5015 4.53145 17.069C4.6246 16.1983 4.80092 15.3387 5.05786 14.5025C5.31748 13.6582 5.63807 12.8345 6.01696 12.0382C6.39776 11.2371 6.82301 10.4588 7.29062 9.70697C8.22517 8.19798 9.30565 6.77875 10.4752 5.43897C11.0602 4.7694 11.6674 4.12028 12.2968 3.49159C12.6115 3.1775 12.9312 2.86875 13.2561 2.56534C13.5815 2.26307 13.9113 1.96495 14.2518 1.67947C13.9004 1.95084 13.559 2.23546 13.2213 2.52484C12.8836 2.81421 12.552 3.11115 12.2246 3.413C11.5704 4.01703 10.9359 4.64354 10.3209 5.29253C9.09362 6.59008 7.9481 7.97613 6.93907 9.46954C6.43207 10.217 5.96739 10.9934 5.54735 11.795C5.12355 12.6016 4.75915 13.4393 4.45719 14.3009C4.15229 15.1704 3.93122 16.0679 3.79713 16.9806C3.73118 17.4403 3.69122 17.9034 3.67745 18.3675C3.66971 18.5998 3.66989 18.8328 3.67799 19.0665C3.68565 19.2998 3.70125 19.532 3.71894 19.7687C3.80095 20.7168 4.03053 21.6448 4.39903 22.5177C4.76952 23.388 5.2489 24.2051 5.8252 24.9487C6.39548 25.6859 7.0312 26.3675 7.72431 26.985C8.41122 27.5972 9.1368 28.1627 9.89638 28.6777C10.6512 29.1936 11.432 29.6656 12.2294 30.1015C13.0268 30.5374 13.8406 30.9376 14.6668 31.3079C15.493 31.6782 16.3311 32.0184 17.1809 32.3304C17.6057 32.486 18.0339 32.6347 18.4656 32.7767C18.6813 32.8478 18.8985 32.9165 19.1171 32.9828L19.4488 33.0794L19.6167 33.1277L19.7028 33.1514L19.7966 33.1766L20.3252 30.7456Z" fill="#F5F5F7"/>
</svg>
